<?xml version="1.0" encoding="UTF-8" standalone="no"?>
<svg
   id="Layer_1"
   data-name="Layer 1"
   viewBox="0 0 600 120"
   version="1.1"
   sodipodi:docname="logo.svg"
   width="600"
   height="120"
   inkscape:version="1.3 (0e150ed, 2023-07-21)"
   xmlns:inkscape="http://www.inkscape.org/namespaces/inkscape"
   xmlns:sodipodi="http://sodipodi.sourceforge.net/DTD/sodipodi-0.dtd"
   xmlns="http://www.w3.org/2000/svg"
   xmlns:svg="http://www.w3.org/2000/svg">
  <sodipodi:namedview
     id="namedview10"
     pagecolor="#ffffff"
     bordercolor="#000000"
     borderopacity="0.25"
     inkscape:showpageshadow="2"
     inkscape:pageopacity="0.0"
     inkscape:pagecheckerboard="0"
     inkscape:deskcolor="#d1d1d1"
     inkscape:zoom="0.52498567"
     inkscape:cx="405.72536"
     inkscape:cy="53.334789"
     inkscape:window-width="1312"
     inkscape:window-height="449"
     inkscape:window-x="0"
     inkscape:window-y="38"
     inkscape:window-maximized="0"
     inkscape:current-layer="Layer_1"
     showgrid="false" />
  <defs
     id="defs1">
    <style
       id="style1">&#10;      .cls-1 {&#10;        fill: #2a1e3c;&#10;      }&#10;&#10;      .cls-1, .cls-2 {&#10;        stroke-width: 0px;&#10;      }&#10;&#10;      .cls-2 {&#10;        fill: #00db80;&#10;      }&#10;    </style>
  </defs>
  <g
     id="g1"
     transform="matrix(0.58251862,0,0,0.57987823,-7.5727421,-9.5853871)">
    <g
       id="g7"
       transform="translate(-72,-80)">
      <path
         class="cls-1"
         d="m 811.86,176 h 21.47 c 3.07,0 5.52,2.55 5.4,5.62 l -0.76,19.51 h 0.39 c 2.36,-9.03 6.38,-15.71 12.07,-20.03 5.69,-4.32 13.65,-6.48 23.85,-6.48 11.12,0 19.76,3.14 25.92,9.42 6.15,6.28 9.23,15.38 9.23,27.29 v 61.65 h -27.09 v -55.56 c 0,-4.71 -0.72,-8.47 -2.16,-11.29 -1.44,-2.81 -3.63,-4.91 -6.58,-6.28 -2.94,-1.37 -6.58,-2.06 -10.9,-2.06 -4.71,0 -8.87,1.05 -12.47,3.14 -3.6,2.1 -6.38,5.2 -8.35,9.33 -1.96,4.12 -2.94,9.13 -2.94,15.02 v 47.71 H 811.85 V 176 Z"
         id="path1" />
      <path
         class="cls-1"
         d="m 986.42,241.77 c -0.22,0.58 -0.44,1.14 -0.7,1.67 -1.51,3.08 -3.73,5.4 -6.68,6.97 -2.95,1.57 -6.32,2.36 -10.11,2.36 -4.19,0 -7.76,-1.08 -10.7,-3.24 -2.94,-2.16 -5.2,-5.37 -6.77,-9.62 -1.57,-4.25 -2.36,-9.39 -2.36,-15.41 0,-6.02 0.82,-11.35 2.45,-15.61 1.64,-4.25 3.99,-7.43 7.07,-9.52 3.07,-2.09 6.77,-3.14 11.09,-3.14 3.53,0 6.64,0.79 9.33,2.36 2.68,1.57 4.78,3.96 6.28,7.17 0.57,1.21 1.03,2.52 1.38,3.92 h 24.94 c -0.75,-5.95 -2.37,-11.16 -4.92,-15.6 -3.6,-6.28 -8.64,-11.09 -15.12,-14.43 -6.48,-3.34 -14.17,-5.01 -23.07,-5.01 -9.42,0 -17.57,2 -24.44,5.99 -6.87,3.99 -12.27,9.75 -16.2,17.28 -3.93,7.53 -5.89,16.46 -5.89,26.8 0,10.34 1.83,18.88 5.5,26.41 3.66,7.53 9,13.29 16,17.28 7,3.99 14.95,5.99 23.85,5.99 8.9,0 16.92,-1.64 23.66,-4.91 6.74,-3.27 11.91,-8.08 15.51,-14.43 2.21,-3.91 3.74,-8.33 4.59,-13.25 h -24.7 z"
         id="path2" />
      <path
         class="cls-1"
         d="m 450.16,235.24 c -0.43,1.15 -0.93,2.25 -1.51,3.29 -2.23,3.99 -5.3,7.1 -9.23,9.33 -3.93,2.23 -8.64,3.34 -14.14,3.34 -6.42,0 -12.14,-1.64 -17.18,-4.91 -5.04,-3.27 -8.87,-8.11 -11.49,-14.53 -2.62,-6.41 -3.93,-14.14 -3.93,-23.17 0,-9.03 1.31,-16.75 3.93,-23.17 2.62,-6.41 6.38,-11.32 11.29,-14.73 4.91,-3.4 10.7,-5.1 17.38,-5.1 4.84,0 9.33,1.08 13.45,3.24 4.12,2.16 7.36,5.37 9.72,9.62 0.96,1.74 1.72,3.62 2.29,5.63 h 26.72 c -0.87,-7.13 -3.05,-13.49 -6.53,-19.08 -4.65,-7.46 -11,-13.15 -19.04,-17.08 -8.05,-3.93 -17.37,-5.89 -27.98,-5.89 -12.44,0 -23.26,2.55 -32.49,7.66 -9.23,5.1 -16.36,12.7 -21.4,22.78 -5.04,10.08 -7.56,22.12 -7.56,36.13 0,14.01 2.48,25.82 7.46,35.83 4.97,10.01 12.11,17.57 21.4,22.68 9.29,5.1 20.09,7.66 32.39,7.66 10.6,0 19.99,-1.96 28.17,-5.89 8.18,-3.93 14.59,-9.59 19.24,-16.98 3.12,-4.96 5.17,-10.52 6.19,-16.64 h -27.16 z"
         id="path3" />
      <path
         class="cls-1"
         d="m 773.72,241.77 c -0.49,2.44 -1.26,4.47 -2.3,6.09 -1.44,2.23 -3.5,3.8 -6.18,4.71 -2.68,0.92 -5.99,1.37 -9.92,1.37 -4.32,0 -8.12,-0.95 -11.39,-2.85 -3.27,-1.9 -5.73,-4.97 -7.36,-9.23 -1.29,-3.34 -2.06,-7.44 -2.33,-12.27 h 63.88 v -8.44 c 0,-10.21 -1.74,-18.81 -5.2,-25.82 -3.47,-7 -8.38,-12.2 -14.72,-15.61 -6.35,-3.4 -13.97,-5.1 -22.87,-5.1 -10.08,0 -18.72,1.93 -25.92,5.79 -7.2,3.86 -12.73,9.65 -16.59,17.38 -3.86,7.72 -5.79,16.95 -5.79,27.68 0,10.73 1.87,19.14 5.6,26.41 3.73,7.26 9.23,12.83 16.49,16.69 7.26,3.86 15.8,5.79 25.62,5.79 8.77,0 16.39,-1.44 22.87,-4.32 6.48,-2.88 11.49,-6.94 15.02,-12.17 3.06,-4.53 4.84,-9.9 5.35,-16.1 h -24.25 z m -30.18,-43.88 c 3.14,-1.9 7.07,-2.85 11.78,-2.85 4.19,0 7.66,0.66 10.41,1.96 2.75,1.31 4.84,3.24 6.28,5.79 1.44,2.55 2.16,5.99 2.16,10.31 v 1.37 h -39.32 c 0.39,-2.61 0.93,-4.95 1.63,-6.97 1.57,-4.52 3.93,-7.72 7.07,-9.62 z"
         id="path4" />
      <path
         class="cls-1"
         d="m 1109.8,195.34 c -3.47,-7 -8.38,-12.2 -14.72,-15.61 -6.35,-3.4 -13.97,-5.1 -22.87,-5.1 -10.08,0 -18.72,1.93 -25.92,5.79 -7.2,3.86 -12.73,9.65 -16.59,17.38 -3.86,7.72 -5.79,16.95 -5.79,27.68 0,10.73 1.87,19.14 5.59,26.41 3.73,7.26 9.23,12.83 16.49,16.69 7.26,3.86 15.81,5.79 25.62,5.79 8.77,0 16.39,-1.44 22.87,-4.32 6.48,-2.88 11.49,-6.94 15.02,-12.17 3.06,-4.53 4.84,-9.9 5.35,-16.1 h -24.25 c -0.49,2.44 -1.26,4.47 -2.3,6.09 -1.44,2.23 -3.5,3.8 -6.18,4.71 -2.68,0.92 -5.99,1.37 -9.91,1.37 -4.32,0 -8.12,-0.95 -11.39,-2.85 -3.27,-1.9 -5.73,-4.97 -7.36,-9.23 -1.29,-3.34 -2.06,-7.44 -2.33,-12.27 h 63.88 v -8.44 c 0,-10.21 -1.74,-18.81 -5.2,-25.82 z m -18.75,19.14 h -39.32 c 0.39,-2.61 0.93,-4.95 1.63,-6.97 1.57,-4.52 3.93,-7.72 7.07,-9.62 3.14,-1.9 7.07,-2.85 11.78,-2.85 4.19,0 7.66,0.66 10.41,1.96 2.75,1.31 4.84,3.24 6.28,5.79 1.44,2.55 2.16,5.99 2.16,10.31 v 1.37 z"
         id="path5" />
      <path
         class="cls-1"
         d="m 556.83,174.62 v 15.9 h -0.2 c -1.44,-3.4 -3.41,-6.31 -5.89,-8.74 -2.49,-2.42 -5.63,-4.22 -9.42,-5.4 -3.8,-1.18 -8.18,-1.77 -13.15,-1.77 -8.77,0 -16.36,1.96 -22.78,5.89 -6.41,3.93 -11.39,9.62 -14.92,17.08 -3.53,7.46 -5.3,16.1 -5.3,25.92 0,10.47 1.67,19.54 5.01,27.19 3.34,7.66 8.18,13.52 14.53,17.57 6.35,4.06 13.84,6.09 22.48,6.09 2.25,0 4.38,-0.16 6.4,-0.45 0,0 0.02,0 0.03,0 10.37,0 23.09,-9.13 23.09,-9.13 v 8.21 l 0.14,-0.07 c 0,0 0,0.05 0,0.07 h 27.09 v -98.36 h -27.09 z m -34.65,74.8 c -3.21,-2.22 -5.69,-5.56 -7.46,-10.01 -1.77,-4.45 -2.65,-9.68 -2.65,-15.71 0,-5.63 0.91,-10.57 2.75,-14.82 1.83,-4.25 4.42,-7.43 7.76,-9.52 3.34,-2.09 7.17,-3.14 11.49,-3.14 4.32,0 8.25,0.98 11.78,2.95 3.53,1.96 6.25,4.78 8.15,8.44 1.9,3.67 2.85,7.98 2.85,12.96 v 4.91 c 0,5.5 -0.95,10.31 -2.85,14.43 -1.9,4.12 -4.65,7.3 -8.25,9.52 -3.6,2.23 -7.76,3.34 -12.47,3.34 -4.19,0 -7.89,-1.11 -11.09,-3.34 z"
         id="path6" />
      <path
         class="cls-1"
         d="m 687.48,137.32 h -21.69 v 53.21 h -0.2 c -1.44,-3.4 -3.41,-6.31 -5.89,-8.74 -2.49,-2.42 -5.63,-4.22 -9.42,-5.4 -3.8,-1.18 -8.18,-1.77 -13.15,-1.77 -8.77,0 -16.36,1.96 -22.78,5.89 -6.41,3.93 -11.39,9.62 -14.92,17.08 -3.53,7.46 -5.3,16.1 -5.3,25.92 0,10.47 1.67,19.54 5.01,27.19 3.34,7.66 8.18,13.52 14.53,17.57 6.35,4.06 13.84,6.09 22.48,6.09 2.25,0 4.38,-0.16 6.4,-0.45 0,0 0.01,0 0.02,0 10.37,0 23.09,-9.13 23.09,-9.13 v 8.21 l 0.15,-0.07 c 0,0 0,0.05 0,0.08 H 692.9 V 142.74 c 0,-2.99 -2.42,-5.41 -5.41,-5.41 z m -56.34,112.11 c -3.21,-2.22 -5.69,-5.56 -7.46,-10.01 -1.77,-4.45 -2.65,-9.68 -2.65,-15.71 0,-5.63 0.91,-10.57 2.75,-14.82 1.83,-4.25 4.42,-7.43 7.76,-9.52 3.34,-2.09 7.17,-3.14 11.48,-3.14 4.31,0 8.25,0.98 11.78,2.95 3.53,1.96 6.25,4.78 8.15,8.44 1.9,3.67 2.85,7.98 2.85,12.96 v 4.91 c 0,5.5 -0.95,10.31 -2.85,14.43 -1.9,4.12 -4.65,7.3 -8.25,9.52 -3.6,2.23 -7.76,3.34 -12.47,3.34 -4.19,0 -7.89,-1.11 -11.09,-3.34 z"
         id="path7" />
    </g>
    <g
       id="g10"
       transform="translate(-72,-80)">
      <path
         class="cls-2"
         d="m 202.63,162.39 h 22.47 c 0.52,-0.07 0.95,0.26 1.02,0.76 l -0.03,20.39 c 0.14,1.12 -0.25,2.33 -1.06,3.28 l -44.37,44.65 c -0.83,0.87 -1.95,1.38 -3.07,1.42 l -21.12,0.03 c -0.54,0.02 -0.94,-0.38 -0.92,-0.91 l 0.05,-22.38 c 0.04,-1.01 0.49,-2.03 1.26,-2.83 l 42.87,-42.83 c 0.76,-0.89 1.82,-1.47 2.9,-1.59 z"
         id="path8" />
      <path
         class="cls-2"
         d="m 207.29,263.5 c -1.55,1.52 -3.54,2.37 -5.44,2.34 l -75.4,-0.1 c -2.26,-0.03 -3.84,-1.63 -3.82,-3.89 v -73.54 c 0,-1.89 0.9,-3.85 2.46,-5.37 l 25.6,-25.27 h -46.15 l -16.88,16.75 c -1.65,1.61 -2.63,3.73 -2.66,5.74 l 0.02,116.77 c -0.03,1.91 0.61,3.54 1.74,4.69 1.13,1.15 2.75,1.82 4.68,1.83 l 117.65,0.02 c 2.02,0 4.16,-0.93 5.81,-2.54 l 15.92,-16.35 v -42.43 z"
         id="path9" />
      <path
         class="cls-2"
         d="M 285.62,96.53 H 167.77 c -1.97,0 -4.02,0.92 -5.63,2.54 l -29.64,30.38 h 120.99 c 3.32,0.05 5.63,2.48 5.62,5.9 l -0.37,121.25 30.53,-29.84 c 1.6,-1.61 2.55,-3.73 2.58,-5.74 V 103.06 c 0.06,-3.83 -2.5,-6.51 -6.22,-6.52 z"
         id="path10" />
    </g>
  </g>
</svg>
