<svg viewBox="0 0 220 220" xmlns="http://www.w3.org/2000/svg">
  <rect width="220" height="220" rx="40" fill="#00DB80"/>
  <g transform="translate(18, 18) scale(0.84)">
    <path d="m 115.63,82.39 h 22.47 c 0.52,-0.07 0.95,0.26 1.02,0.76 l -0.03,20.39 c 0.14,1.12 -0.25,2.33 -1.06,3.28 l -44.37,44.65 c -0.83,0.87 -1.95,1.38 -3.07,1.42 l -21.12,0.03 c -0.54,0.02 -0.94,-0.38 -0.92,-0.91 l 0.05,-22.38 c 0.04,-1.01 0.49,-2.03 1.26,-2.83 l 42.87,-42.83 c 0.76,-0.89 1.82,-1.47 2.9,-1.59 z" fill="white"/>
    <path d="m 120.29,183.5 c -1.55,1.52 -3.54,2.37 -5.44,2.34 l -75.4,-0.1 c -2.26,-0.03 -3.84,-1.63 -3.82,-3.89 v -73.54 c 0,-1.89 0.9,-3.85 2.46,-5.37 l 25.6,-25.27 h -46.15 l -16.88,16.75 c -1.65,1.61 -2.63,3.73 -2.66,5.74 l 0.02,116.77 c -0.03,1.91 0.61,3.54 1.74,4.69 1.13,1.15 2.75,1.82 4.68,1.83 l 117.65,0.02 c 2.02,0 4.16,-0.93 5.81,-2.54 l 15.92,-16.35 v -42.43 z" fill="white"/>
    <path d="M 198.62,16.53 H 80.77 c -1.97,0 -4.02,0.92 -5.63,2.54 l -29.64,30.38 h 120.99 c 3.32,0.05 5.63,2.48 5.62,5.9 l -0.37,121.25 30.53,-29.84 c 1.6,-1.61 2.55,-3.73 2.58,-5.74 V 23.06 c 0.06,-3.83 -2.5,-6.51 -6.22,-6.52 z" fill="white"/>
  </g>
</svg>
